<svg width="700" height="700" viewBox="0 0 700 700" fill="none" xmlns="http://www.w3.org/2000/svg">
<rect width="700" height="700" rx="130" fill="url(#paint0_linear_604_12)"/>
<path d="M282.77 580.838C282.74 577.3 282.712 561.974 282.683 547.628L282.654 532.723C217.952 541.521 202.289 496.377 202.115 495.896C193.135 473.127 180.855 466.617 180.327 466.348L179.134 465.655C174.682 462.617 162.875 454.531 166.231 443.896C169.259 434.309 181 433.319 186.336 433.492C215.894 435.559 230.856 462.127 231.471 463.251C246.558 489.108 269.586 486.434 284.443 480.983C285.827 474.367 287.971 468.29 290.779 462.925C243.125 454.473 189.135 429.127 189.135 336.925C189.135 311.607 197.019 289.233 212.605 270.3C209.125 258.703 205.163 235.049 216.894 205.251L218.567 201.001L222.914 199.616C226.914 198.299 248.76 193.617 293.674 223.01C312.212 218.261 331.837 215.809 352.077 215.713C372.413 215.809 392.058 218.261 410.635 223.01C455.511 193.607 477.308 198.348 481.318 199.616L485.654 201.011L487.328 205.242C499.106 235.03 495.145 258.693 491.664 270.3C507.222 289.175 515.106 311.559 515.106 336.925C515.106 429.146 461.058 454.415 413.299 462.761C418.712 473.002 421.644 485.858 421.644 500.05C421.644 516.232 421.577 569.319 421.5 580.838L402.269 580.704C402.347 569.204 402.414 516.204 402.414 500.04C402.414 476.56 393.346 466.175 389.433 462.79L372.798 448.396L394.664 445.963C444.712 440.405 495.866 423.089 495.866 336.915C495.866 314.511 488.395 294.982 473.654 278.876L469.52 274.367L471.847 268.722C473.443 264.867 480.443 245.242 471.433 217.848C464.145 218.281 446.741 221.712 417.741 241.376L414.049 243.866L409.769 242.684C391.856 237.703 371.904 235.03 352.068 234.934C332.337 235.03 312.413 237.703 294.529 242.684L290.25 243.866L286.567 241.376C257.539 221.723 240.096 218.261 232.779 217.828C223.788 245.242 230.798 264.867 232.394 268.722L234.721 274.367L230.596 278.876C215.827 295.04 208.346 314.568 208.346 336.915C208.346 423.05 259.404 440.473 309.346 446.156L331 448.618L314.577 462.944C311 466.069 304.673 473.636 302.519 489.165L301.798 494.444L296.933 496.627C284.231 502.319 240.788 517.416 214.74 472.732C214.596 472.493 209.51 463.646 200.298 457.761C206.509 463.906 214.077 473.848 220.182 489.367C220.817 491.194 233.231 524.195 290.183 511.857L301.779 509.338L301.894 547.589C301.923 561.886 301.952 577.166 301.981 580.704L282.77 580.838Z" fill="white"/>
<path d="M350 600C212.144 600 100 487.856 100 350C100 212.144 212.144 100 350 100C487.856 100 600 212.144 600 350C600 487.856 487.856 600 350 600ZM350 119.23C222.759 119.23 119.23 222.759 119.23 350C119.23 477.241 222.759 580.77 350 580.77C477.241 580.77 580.77 477.241 580.77 350C580.77 222.759 477.241 119.23 350 119.23Z" fill="white" fill-opacity="0.4"/>
<defs>
<linearGradient id="paint0_linear_604_12" x1="0" y1="700" x2="80.7775" y2="-65.3543" gradientUnits="userSpaceOnUse">
<stop stop-color="#0041C2"/>
<stop offset="1" stop-color="#E543E5"/>
</linearGradient>
</defs>
</svg>
